<svg xmlns="http://www.w3.org/2000/svg" viewBox="0 0 720 220" width="720" height="220" role="img" aria-label="MagnifyShit 2.1">
  <defs>
    <linearGradient id="bg" x1="0" y1="0" x2="1" y2="1">
      <stop offset="0%" stop-color="#0b1220"/>
      <stop offset="100%" stop-color="#101a2e"/>
    </linearGradient>
    <linearGradient id="rim" x1="0" y1="0" x2="1" y2="1">
      <stop offset="0%" stop-color="#7dd3fc"/>
      <stop offset="100%" stop-color="#2563eb"/>
    </linearGradient>
    <radialGradient id="glass" cx="50%" cy="40%" r="65%">
      <stop offset="0%"  stop-color="#ffffff" stop-opacity="0.32"/>
      <stop offset="55%" stop-color="#7dd3fc" stop-opacity="0.10"/>
      <stop offset="100%" stop-color="#0b1220" stop-opacity="0.55"/>
    </radialGradient>
    <linearGradient id="title" x1="0" y1="0" x2="1" y2="0">
      <stop offset="0%"   stop-color="#e2e8f0"/>
      <stop offset="100%" stop-color="#7dd3fc"/>
    </linearGradient>
    <pattern id="grid" x="0" y="0" width="14" height="14" patternUnits="userSpaceOnUse">
      <path d="M14 0H0V14" fill="none" stroke="#1e293b" stroke-width="1"/>
    </pattern>
    <clipPath id="lensClip">
      <circle cx="0" cy="0" r="58"/>
    </clipPath>
    <linearGradient id="poop" x1="0" y1="0" x2="0" y2="1">
      <stop offset="0%"  stop-color="#a3661f"/>
      <stop offset="55%" stop-color="#7a4515"/>
      <stop offset="100%" stop-color="#4a2708"/>
    </linearGradient>
    <symbol id="poopEmoji" overflow="visible">
      <!-- stacked swirl body -->
      <ellipse cx="0" cy="22"  rx="32" ry="11" fill="url(#poop)"/>
      <ellipse cx="-2" cy="6"  rx="24" ry="10" fill="url(#poop)"/>
      <ellipse cx="2"  cy="-9" rx="16" ry="9"  fill="url(#poop)"/>
      <ellipse cx="-1" cy="-21" rx="8"  ry="6"  fill="url(#poop)"/>
      <!-- highlights -->
      <ellipse cx="-10" cy="2"  rx="5" ry="2" fill="#c98a3e" opacity="0.7"/>
      <ellipse cx="-6"  cy="-12" rx="3" ry="1.5" fill="#c98a3e" opacity="0.7"/>
      <!-- eyes -->
      <circle cx="-9" cy="8" r="4" fill="#ffffff"/>
      <circle cx="9"  cy="8" r="4" fill="#ffffff"/>
      <circle cx="-8" cy="9" r="1.8" fill="#0b1220"/>
      <circle cx="10" cy="9" r="1.8" fill="#0b1220"/>
      <!-- smile -->
      <path d="M-7 17 Q0 23 7 17" fill="none" stroke="#0b1220" stroke-width="2" stroke-linecap="round"/>
    </symbol>
  </defs>

  <!-- title -->
  <g font-family="Segoe UI, Inter, system-ui, sans-serif" font-weight="700">
    <text x="210" y="108" font-size="56" fill="url(#title)">MagnifyShit</text>
    <text x="210" y="150" font-size="22" fill="#94a3b8" letter-spacing="3">D3D11 - DXGI - ImGui</text>
    <text x="555" y="108" font-size="56" fill="#facc15" opacity="0.9">2.1</text>
  </g>

  <!-- moving lens that magnifies a pixel grid behind it -->
  <g transform="translate(110 110)">
    <animateTransform attributeName="transform" type="translate"
      values="60 110; 160 110; 60 110"
      keyTimes="0;0.5;1" dur="6s" repeatCount="indefinite" calcMode="spline"
      keySplines="0.42 0 0.58 1; 0.42 0 0.58 1"/>

    <!-- magnified content: the star of the show, magnified poop -->
    <g clip-path="url(#lensClip)">
      <rect x="-80" y="-80" width="160" height="160" fill="#0b1220"/>
      <g transform="scale(2.4)">
        <rect x="-40" y="-40" width="80" height="80" fill="url(#grid)"/>
      </g>
      <use href="#poopEmoji" x="0" y="0"/>
      <circle cx="0" cy="0" r="58" fill="url(#glass)"/>
      <!-- specular highlight -->
      <ellipse cx="-18" cy="-22" rx="24" ry="12" fill="#ffffff" opacity="0.28"/>
    </g>

    <!-- lens rim -->
    <circle cx="0" cy="0" r="58" fill="none" stroke="url(#rim)" stroke-width="6"/>
    <circle cx="0" cy="0" r="58" fill="none" stroke="#0b1220" stroke-width="1.5"/>

    <!-- handle -->
    <g transform="rotate(35)">
      <rect x="56" y="-8" width="46" height="16" rx="8" fill="#1e293b" stroke="url(#rim)" stroke-width="2"/>
    </g>

    <!-- soft pulse aura -->
    <circle cx="0" cy="0" r="62" fill="none" stroke="#7dd3fc" stroke-width="2" opacity="0.6">
      <animate attributeName="r" values="62;78;62" dur="2.4s" repeatCount="indefinite"/>
      <animate attributeName="opacity" values="0.6;0;0.6" dur="2.4s" repeatCount="indefinite"/>
    </circle>
  </g>

  <!-- bottom scanline -->
  <rect x="20" y="190" width="680" height="2" fill="#1e293b"/>
  <rect x="20" y="190" width="120" height="2" fill="#7dd3fc">
    <animate attributeName="x" values="20;580;20" dur="5s" repeatCount="indefinite"/>
  </rect>
</svg>
